<svg version="1.1" id="Layer_1" xmlns="http://www.w3.org/2000/svg" xmlns:xlink="http://www.w3.org/1999/xlink" x="0px" y="0px"
	 width="100%" viewBox="0 0 650 200" enable-background="new 0 0 650 200" xml:space="preserve">
<path fill="none" opacity="1.000000" stroke="none" 
	d="
M505.000000,201.000000 
	C336.666687,201.000000 168.833374,201.000000 1.000045,201.000000 
	C1.000030,134.333359 1.000030,67.666725 1.000015,1.000063 
	C217.666611,1.000042 434.333221,1.000042 650.999878,1.000021 
	C650.999878,67.666603 650.999878,134.333206 650.999939,200.999908 
	C602.500000,201.000000 554.000000,201.000000 505.000000,201.000000 
M649.988281,126.067764 
	C649.937622,110.713142 649.886902,95.358528 649.971802,79.101830 
	C649.926453,76.066788 649.881042,73.031738 649.988403,69.070847 
	C649.988403,48.810524 649.988403,28.550200 649.988403,8.000001 
	C648.036133,8.000001 646.568726,8.000001 645.101257,8.000001 
	C460.555023,8.000001 276.008789,7.999569 91.462540,8.007569 
	C89.968704,8.007633 88.474876,8.122020 86.501305,8.081283 
	C86.501305,8.081283 86.021454,8.184507 85.285233,8.011416 
	C84.536163,8.064405 83.787094,8.117394 82.494705,8.034029 
	C82.313568,8.079327 82.132423,8.124624 81.033714,8.011875 
	C55.056934,8.011875 29.080156,8.011875 3.165446,8.011875 
	C3.165446,23.446529 3.165446,38.208702 3.013113,53.900887 
	C3.064129,85.937462 3.115146,117.974030 3.011759,150.935440 
	C3.011759,165.165878 3.011759,179.396317 3.011759,193.836533 
	C29.268772,193.836533 55.122013,193.836533 81.648399,193.988297 
	C82.102722,193.936844 82.557045,193.885391 83.749146,193.990356 
	C84.498154,193.938965 85.247169,193.887573 86.658829,193.964844 
	C87.104454,193.919357 87.550087,193.873871 88.921516,193.987854 
	C275.886566,193.987854 462.851593,193.987854 649.826050,193.987854 
	C649.826050,174.925049 649.826050,156.459595 649.965027,137.090027 
	C649.921875,133.725571 649.878784,130.361099 649.988281,126.067764 
z"/>
<path fill="none" opacity="1.000000" stroke="none" 
	d="
M86.981041,8.183027 
	C88.474876,8.122020 89.968704,8.007633 91.462540,8.007569 
	C276.008789,7.999569 460.555023,8.000001 645.101257,8.000001 
	C646.568726,8.000001 648.036133,8.000001 649.988403,8.000001 
	C649.988403,28.550200 649.988403,48.810524 649.454712,69.535065 
	C639.358826,69.999283 629.796570,69.999283 620.268433,69.999283 
	C620.268433,92.973579 620.268433,115.311691 620.268433,137.994141 
	C630.297119,137.994141 640.061584,137.994141 649.826050,137.994141 
	C649.826050,156.459595 649.826050,174.925049 649.826050,193.987854 
	C462.851593,193.987854 275.886566,193.987854 88.621658,193.601517 
	C91.753593,191.401779 95.226273,189.661270 98.610558,187.763153 
	C119.968094,175.784485 141.279617,163.723358 162.679977,151.821930 
	C165.756058,150.111221 167.114792,148.207001 167.093109,144.489258 
	C166.923904,115.501038 166.904938,86.510666 167.124756,57.523125 
	C167.150879,54.077938 165.660431,52.449944 163.223953,51.066196 
	C157.583801,47.862995 151.851929,44.821640 146.201340,41.636406 
	C126.451141,30.503204 106.719650,19.336809 86.981041,8.183027 
M427.999634,124.491714 
	C427.999634,106.411728 427.999634,88.331741 427.999634,70.002388 
	C423.073853,70.002388 418.751892,69.814987 414.465515,70.122604 
	C413.261810,70.208992 411.476776,71.550629 411.152588,72.664162 
	C410.386841,75.294327 410.369659,78.137665 409.995453,80.887405 
	C408.523895,91.700104 407.031250,102.509941 405.355438,114.711617 
	C403.082397,98.924301 401.007599,84.513832 398.971832,70.374466 
	C393.241730,70.374466 388.175781,70.374466 383.385071,70.374466 
	C383.385071,93.131203 383.385071,115.512177 383.385071,137.763245 
	C386.720123,137.763245 389.665283,137.763245 393.056641,137.763245 
	C393.056641,123.235161 393.056641,108.935509 393.056641,94.635857 
	C393.227112,94.636368 393.397552,94.636887 393.568024,94.637398 
	C395.759613,109.043068 397.951233,123.448738 400.138519,137.826019 
	C403.605988,137.826019 406.557648,137.826019 409.712158,137.826019 
	C411.953766,123.284012 414.174316,108.878593 416.394867,94.473167 
	C416.625916,94.484253 416.856964,94.495338 417.088013,94.506424 
	C417.088013,108.896095 417.088013,123.285767 417.088013,137.699615 
	C420.938538,137.699615 424.331726,137.699615 427.999634,137.699615 
	C427.999634,133.431168 427.999634,129.459747 427.999634,124.491714 
M339.999268,80.524673 
	C339.999268,99.610680 339.999268,118.696678 339.999268,137.641937 
	C344.382568,137.641937 348.111603,137.641937 352.277100,137.641937 
	C352.277100,127.895012 352.277100,118.500732 352.277100,109.144096 
	C359.457092,108.895073 360.785645,110.345375 361.055328,116.919838 
	C361.341705,123.900688 359.688934,131.060867 362.363068,137.630402 
	C366.453735,137.630402 370.161499,137.630402 372.999939,137.630402 
	C372.999939,130.682327 373.151031,124.087410 372.953705,117.502930 
	C372.785919,111.903015 372.295227,106.285263 367.427155,102.874931 
	C368.429169,101.589935 369.428986,100.593727 370.093353,99.409332 
	C374.436890,91.665863 374.040924,83.616920 370.243652,76.036942 
	C368.925446,73.405548 365.333923,70.598007 362.515564,70.289017 
	C355.173706,69.484116 347.685028,70.018250 339.999268,70.018250 
	C339.999268,73.584877 339.999268,76.560501 339.999268,80.524673 
M543.450806,137.999619 
	C544.884033,137.914169 546.317261,137.828705 548.150635,137.719376 
	C548.150635,127.983398 548.150635,118.569984 548.150635,109.195000 
	C555.996887,108.777832 557.842224,110.364044 557.987976,117.396118 
	C558.056946,120.722252 557.934021,124.052536 558.011902,127.378273 
	C558.290283,139.267960 555.512146,138.027740 568.936401,137.915741 
	C569.225098,137.913330 569.511353,137.626434 568.999268,137.901199 
	C568.999268,129.235764 569.380310,120.985138 568.819946,112.798935 
	C568.581116,109.309265 566.374939,105.954262 564.830872,101.934380 
	C571.262939,95.836594 569.339478,87.177002 568.212891,78.774689 
	C567.486694,73.358261 563.299744,70.615326 558.515137,70.182549 
	C551.483337,69.546524 544.351318,70.018593 537.293823,70.018593 
	C537.293823,92.977219 537.293823,115.347641 537.293823,137.999619 
	C539.223511,137.999619 540.861816,137.999619 543.450806,137.999619 
M318.885498,69.028633 
	C314.936890,69.179802 310.708740,68.476036 307.096954,69.657173 
	C299.176331,72.247429 297.610016,77.185715 297.130890,86.847672 
	C296.571381,98.130447 296.968109,109.462341 297.009338,120.772720 
	C297.048767,131.583679 300.434235,136.090515 311.270782,137.982819 
	C323.797668,140.170288 330.200500,133.031891 330.049225,123.222260 
	C329.849243,110.251511 330.002197,97.275345 329.999207,84.301514 
	C329.997314,76.141571 327.193390,72.039474 318.885498,69.028633 
M498.512085,72.991661 
	C497.008118,76.478928 494.343903,79.921234 494.206726,83.461449 
	C493.691284,96.761864 493.665680,110.107826 494.206909,123.406197 
	C494.366180,127.318794 496.002106,132.192154 498.721741,134.762558 
	C504.027466,139.777161 511.274597,140.048187 517.898010,137.421753 
	C524.062927,134.977158 526.860291,129.442444 526.947876,122.936813 
	C527.122620,109.951790 527.273499,96.954475 526.881042,83.978966 
	C526.692322,77.737106 524.315735,71.824608 517.531006,69.982025 
	C511.228516,68.270401 504.620514,67.281456 498.512085,72.991661 
M229.643311,106.945992 
	C235.386505,110.762177 239.329910,115.640999 238.985764,122.986664 
	C238.841797,126.059319 237.104691,127.863625 234.090073,127.936539 
	C231.041275,128.010269 229.304718,126.164558 229.039017,123.167336 
	C228.868378,121.242432 229.007004,119.290115 229.007004,117.278824 
	C225.090790,117.278824 221.689026,117.278824 218.001328,117.278824 
	C218.001328,119.525139 217.781921,121.525146 218.041931,123.460762 
	C218.865677,129.593079 220.617310,135.476425 227.222595,137.597305 
	C234.070618,139.796112 243.212112,138.900406 246.991821,133.525314 
	C251.713120,126.811134 252.569458,116.712555 247.552795,109.302521 
	C243.956589,103.990616 238.751495,99.789337 234.466324,94.914871 
	C231.646454,91.707199 228.790833,88.085609 230.196289,83.528557 
	C230.758102,81.706947 233.110092,79.932655 235.035202,79.278206 
	C235.834824,79.006378 238.016479,81.518394 238.902740,83.131004 
	C239.853577,84.861122 240.020416,87.022102 240.471832,88.771881 
	C244.145386,88.771881 247.440643,88.771881 250.497238,88.771881 
	C250.238831,85.139290 250.520096,81.585144 249.643539,78.344124 
	C247.854752,71.730118 242.621857,69.211426 233.260193,68.946350 
	C220.675751,68.590027 217.860245,79.523590 218.498077,87.891563 
	C219.092743,95.693321 223.630875,101.399162 229.643311,106.945992 
M590.793091,124.294220 
	C590.528748,118.553497 590.135864,112.815094 590.032227,107.071472 
	C589.900085,99.751228 589.790405,92.417625 590.107178,85.108681 
	C590.232788,82.209618 591.413696,78.793648 595.216553,79.140106 
	C598.482483,79.437637 600.232849,81.868347 600.026794,85.426613 
	C599.886475,87.849976 599.999939,90.288033 599.999939,92.681763 
	C603.987244,92.681763 607.382202,92.681763 612.163330,92.681763 
	C610.764893,86.316917 610.513855,80.031036 607.956177,74.893547 
	C605.051636,69.059563 595.368469,67.027550 588.458618,69.183189 
	C582.397522,71.074036 579.013245,76.561752 579.003784,84.593796 
	C578.989380,96.742691 579.137817,108.893616 578.962830,121.040016 
	C578.772217,134.275894 583.623047,137.250427 593.853821,138.656433 
	C598.548889,139.301682 603.972229,138.319458 607.520630,133.215958 
	C612.108398,126.617607 610.747192,119.523781 610.906982,112.247917 
	C607.161926,112.247917 603.769470,112.247917 599.999756,112.247917 
	C599.999756,115.615273 600.408875,118.814713 599.858765,121.839714 
	C599.479980,123.922234 598.187195,126.539719 596.510559,127.436302 
	C595.409119,128.025299 592.895874,125.974030 590.793091,124.294220 
M458.000336,117.499840 
	C458.000336,124.254585 458.000336,131.009338 458.000336,137.662994 
	C462.015533,137.662994 465.406464,137.662994 469.239349,137.662994 
	C469.239349,127.609406 469.239349,117.887108 469.239349,107.725502 
	C474.094116,107.725502 478.494141,107.725502 482.782990,107.725502 
	C482.782990,104.317986 482.782990,101.372856 482.782990,97.975441 
	C478.182190,97.975441 473.775085,97.975441 469.265350,97.975441 
	C469.265350,91.789513 469.265350,86.069016 469.265350,79.891891 
	C475.252380,79.891891 480.988220,79.891891 486.686951,79.891891 
	C486.686951,76.365753 486.686951,73.306618 486.686951,70.326035 
	C476.988281,70.326035 467.605286,70.326035 458.000336,70.326035 
	C458.000336,85.933983 458.000336,101.216927 458.000336,117.499840 
M279.000000,101.500122 
	C279.000000,94.408371 279.000000,87.316612 279.000000,79.780670 
	C283.028259,79.780670 286.431763,79.780670 289.626404,79.780670 
	C289.626404,76.251175 289.626404,73.190926 289.626404,70.214310 
	C278.648895,70.214310 268.046295,70.214310 257.240662,70.214310 
	C257.240662,73.489731 257.240662,76.549492 257.240662,80.074249 
	C260.868927,80.074249 264.277802,80.074249 268.106812,80.074249 
	C268.106812,99.587326 268.106812,118.639297 268.106812,137.692108 
	C271.955383,137.692108 275.348053,137.692108 279.000000,137.692108 
	C279.000000,125.757713 279.000000,114.128876 279.000000,101.500122 
z"/>
<path fill="none" opacity="1.000000" stroke="none" 
	d="
M85.996178,193.836182 
	C85.247169,193.887573 84.498154,193.938965 83.376663,193.454071 
	C83.002739,183.095764 82.872765,173.271133 83.071632,163.453186 
	C83.138565,160.148544 81.989571,158.437042 79.043556,156.936874 
	C64.988884,149.779938 51.033558,142.424255 37.149963,134.940628 
	C35.734493,134.177643 34.151131,132.096863 34.135792,130.612213 
	C33.934608,111.136726 33.923962,91.657639 34.134777,72.182365 
	C34.153629,70.441010 35.665226,68.214317 37.149334,67.098763 
	C39.908073,65.025116 43.164078,63.615814 46.202164,61.910515 
	C57.042912,55.825562 67.869484,49.715279 78.722939,43.653107 
	C81.905441,41.875534 83.261108,39.535976 83.114151,35.634068 
	C82.769814,26.491518 83.025345,17.326378 83.038025,8.170383 
	C83.787094,8.117394 84.536163,8.064405 85.644562,8.553547 
	C86.002655,18.586241 85.860756,28.080847 86.133324,37.563541 
	C86.180893,39.218365 87.577278,41.498981 89.021843,42.346149 
	C103.278191,50.706772 117.711906,58.764782 131.978302,67.108688 
	C133.384293,67.931000 134.856277,70.077309 134.871429,71.623070 
	C135.065674,91.434799 135.031601,111.249275 134.917450,131.062256 
	C134.910950,132.190964 133.979355,133.720718 133.012787,134.359848 
	C130.324905,136.137177 127.407112,137.572617 124.552246,139.090652 
	C112.648567,145.420319 100.781326,151.821793 88.783890,157.968918 
	C86.468147,159.155426 85.921677,160.486221 85.948921,162.867554 
	C86.067017,173.189270 85.997482,183.513107 85.996178,193.836182 
M84.192719,45.011463 
	C71.390923,52.956955 58.589127,60.902443 45.083698,69.284645 
	C50.744270,72.490219 55.601810,75.344421 60.554646,78.022369 
	C68.629997,82.388641 76.767548,86.639870 85.553963,90.726616 
	C98.094398,83.810547 110.634834,76.894478 124.302872,69.356537 
	C110.236877,60.684055 97.573204,52.876186 84.192719,45.011463 
z"/>
<path fill="#FFB319" opacity="1.000000" stroke="none" 
	d="
M86.327499,193.900513 
	C85.997482,183.513107 86.067017,173.189270 85.948921,162.867554 
	C85.921677,160.486221 86.468147,159.155426 88.783890,157.968918 
	C100.781326,151.821793 112.648567,145.420319 124.552246,139.090652 
	C127.407112,137.572617 130.324905,136.137177 133.012787,134.359848 
	C133.979355,133.720718 134.910950,132.190964 134.917450,131.062256 
	C135.031601,111.249275 135.065674,91.434799 134.871429,71.623070 
	C134.856277,70.077309 133.384293,67.931000 131.978302,67.108688 
	C117.711906,58.764782 103.278191,50.706772 89.021843,42.346149 
	C87.577278,41.498981 86.180893,39.218365 86.133324,37.563541 
	C85.860756,28.080847 86.002655,18.586241 86.012665,8.640093 
	C86.021454,8.184507 86.501305,8.081283 86.741173,8.132154 
	C106.719650,19.336809 126.451141,30.503204 146.201340,41.636406 
	C151.851929,44.821640 157.583801,47.862995 163.223953,51.066196 
	C165.660431,52.449944 167.150879,54.077938 167.124756,57.523125 
	C166.904938,86.510666 166.923904,115.501038 167.093109,144.489258 
	C167.114792,148.207001 165.756058,150.111221 162.679977,151.821930 
	C141.279617,163.723358 119.968094,175.784485 98.610558,187.763153 
	C95.226273,189.661270 91.753593,191.401779 88.158752,193.521790 
	C87.550087,193.873871 87.104454,193.919357 86.327499,193.900513 
z"/>
<path fill="#2E0103" opacity="1.000000" stroke="none" 
	d="
M82.766365,8.102206 
	C83.025345,17.326378 82.769814,26.491518 83.114151,35.634068 
	C83.261108,39.535976 81.905441,41.875534 78.722939,43.653107 
	C67.869484,49.715279 57.042912,55.825562 46.202164,61.910515 
	C43.164078,63.615814 39.908073,65.025116 37.149334,67.098763 
	C35.665226,68.214317 34.153629,70.441010 34.134777,72.182365 
	C33.923962,91.657639 33.934608,111.136726 34.135792,130.612213 
	C34.151131,132.096863 35.734493,134.177643 37.149963,134.940628 
	C51.033558,142.424255 64.988884,149.779938 79.043556,156.936874 
	C81.989571,158.437042 83.138565,160.148544 83.071632,163.453186 
	C82.872765,173.271133 83.002739,183.095764 83.007767,193.375854 
	C82.557045,193.885391 82.102722,193.936844 81.142014,193.623962 
	C80.119568,192.851547 79.647324,192.365662 79.081078,192.046677 
	C63.084530,183.035751 47.110115,173.984772 31.061848,165.066727 
	C21.826342,159.934540 12.468782,155.022003 3.166160,150.010620 
	C3.115146,117.974030 3.064129,85.937462 3.389277,53.286346 
	C19.795631,43.640030 35.848793,34.648697 51.847652,25.561756 
	C61.924240,19.838511 71.919518,13.972107 81.951271,8.169923 
	C82.132423,8.124624 82.313568,8.079327 82.766365,8.102206 
z"/>
<path fill="none" opacity="1.000000" stroke="none" 
	d="
M81.492493,8.090899 
	C71.919518,13.972107 61.924240,19.838511 51.847652,25.561756 
	C35.848793,34.648697 19.795631,43.640030 3.465444,52.821339 
	C3.165446,38.208702 3.165446,23.446529 3.165446,8.011875 
	C29.080156,8.011875 55.056934,8.011875 81.492493,8.090899 
z"/>
<path fill="none" opacity="1.000000" stroke="none" 
	d="
M3.088958,150.473022 
	C12.468782,155.022003 21.826342,159.934540 31.061848,165.066727 
	C47.110115,173.984772 63.084530,183.035751 79.081078,192.046677 
	C79.647324,192.365662 80.119568,192.851547 80.805435,193.548080 
	C55.122013,193.836533 29.268772,193.836533 3.011759,193.836533 
	C3.011759,179.396317 3.011759,165.165878 3.088958,150.473022 
z"/>
<path fill="#FFB319" opacity="1.000000" stroke="none" 
	d="
M649.895508,137.542084 
	C640.061584,137.994141 630.297119,137.994141 620.268433,137.994141 
	C620.268433,115.311691 620.268433,92.973579 620.268433,69.999283 
	C629.796570,69.999283 639.358826,69.999283 649.378357,69.997986 
	C649.881042,73.031738 649.926453,76.066788 649.447205,79.551270 
	C643.344299,80.000702 637.765930,80.000702 632.351624,80.000702 
	C632.351624,86.066376 632.351624,91.454842 632.351624,97.279449 
	C637.100464,97.279449 641.497742,97.279449 645.785034,97.279449 
	C645.785034,100.679451 645.785034,103.624146 645.785034,107.016266 
	C641.189392,107.016266 636.785156,107.016266 632.251831,107.016266 
	C632.251831,113.859200 632.251831,120.241600 632.251831,126.996643 
	C638.275696,126.996643 644.055664,126.996643 649.835632,126.996643 
	C649.878784,130.361099 649.921875,133.725571 649.895508,137.542084 
z"/>
<path fill="none" opacity="1.000000" stroke="none" 
	d="
M649.911987,126.532204 
	C644.055664,126.996643 638.275696,126.996643 632.251831,126.996643 
	C632.251831,120.241600 632.251831,113.859200 632.251831,107.016266 
	C636.785156,107.016266 641.189392,107.016266 645.785034,107.016266 
	C645.785034,103.624146 645.785034,100.679451 645.785034,97.279449 
	C641.497742,97.279449 637.100464,97.279449 632.351624,97.279449 
	C632.351624,91.454842 632.351624,86.066376 632.351624,80.000702 
	C637.765930,80.000702 643.344299,80.000702 649.379395,80.002304 
	C649.886902,95.358528 649.937622,110.713142 649.911987,126.532204 
z"/>
<path fill="#FFB319" opacity="1.000000" stroke="none" 
	d="
M427.999634,124.990028 
	C427.999634,129.459747 427.999634,133.431168 427.999634,137.699615 
	C424.331726,137.699615 420.938538,137.699615 417.088013,137.699615 
	C417.088013,123.285767 417.088013,108.896095 417.088013,94.506424 
	C416.856964,94.495338 416.625916,94.484253 416.394867,94.473167 
	C414.174316,108.878593 411.953766,123.284012 409.712158,137.826019 
	C406.557648,137.826019 403.605988,137.826019 400.138519,137.826019 
	C397.951233,123.448738 395.759613,109.043068 393.568024,94.637398 
	C393.397552,94.636887 393.227112,94.636368 393.056641,94.635857 
	C393.056641,108.935509 393.056641,123.235161 393.056641,137.763245 
	C389.665283,137.763245 386.720123,137.763245 383.385071,137.763245 
	C383.385071,115.512177 383.385071,93.131203 383.385071,70.374466 
	C388.175781,70.374466 393.241730,70.374466 398.971832,70.374466 
	C401.007599,84.513832 403.082397,98.924301 405.355438,114.711617 
	C407.031250,102.509941 408.523895,91.700104 409.995453,80.887405 
	C410.369659,78.137665 410.386841,75.294327 411.152588,72.664162 
	C411.476776,71.550629 413.261810,70.208992 414.465515,70.122604 
	C418.751892,69.814987 423.073853,70.002388 427.999634,70.002388 
	C427.999634,88.331741 427.999634,106.411728 427.999634,124.990028 
z"/>
<path fill="#FFB319" opacity="1.000000" stroke="none" 
	d="
M339.999268,80.030396 
	C339.999268,76.560501 339.999268,73.584877 339.999268,70.018250 
	C347.685028,70.018250 355.173706,69.484116 362.515564,70.289017 
	C365.333923,70.598007 368.925446,73.405548 370.243652,76.036942 
	C374.040924,83.616920 374.436890,91.665863 370.093353,99.409332 
	C369.428986,100.593727 368.429169,101.589935 367.427155,102.874931 
	C372.295227,106.285263 372.785919,111.903015 372.953705,117.502930 
	C373.151031,124.087410 372.999939,130.682327 372.999939,137.630402 
	C370.161499,137.630402 366.453735,137.630402 362.363068,137.630402 
	C359.688934,131.060867 361.341705,123.900688 361.055328,116.919838 
	C360.785645,110.345375 359.457092,108.895073 352.277100,109.144096 
	C352.277100,118.500732 352.277100,127.895012 352.277100,137.641937 
	C348.111603,137.641937 344.382568,137.641937 339.999268,137.641937 
	C339.999268,118.696678 339.999268,99.610680 339.999268,80.030396 
M352.007385,96.154701 
	C353.718567,96.740875 355.724823,98.167030 357.064789,97.696373 
	C358.667938,97.133286 360.151825,95.131813 360.849121,93.413216 
	C361.483154,91.850548 361.000580,89.832207 360.998840,88.014748 
	C360.991913,80.741188 359.573944,79.497459 352.361511,80.435539 
	C352.255005,80.737312 352.057770,81.038422 352.055573,81.340942 
	C352.022156,85.966873 352.014221,90.592995 352.007385,96.154701 
z"/>
<path fill="#FFB319" opacity="1.000000" stroke="none" 
	d="
M542.975464,137.999619 
	C540.861816,137.999619 539.223511,137.999619 537.293823,137.999619 
	C537.293823,115.347641 537.293823,92.977219 537.293823,70.018593 
	C544.351318,70.018593 551.483337,69.546524 558.515137,70.182549 
	C563.299744,70.615326 567.486694,73.358261 568.212891,78.774689 
	C569.339478,87.177002 571.262939,95.836594 564.830872,101.934380 
	C566.374939,105.954262 568.581116,109.309265 568.819946,112.798935 
	C569.380310,120.985138 568.999268,129.235764 568.999268,137.901199 
	C569.511353,137.626434 569.225098,137.913330 568.936401,137.915741 
	C555.512146,138.027740 558.290283,139.267960 558.011902,127.378273 
	C557.934021,124.052536 558.056946,120.722252 557.987976,117.396118 
	C557.842224,110.364044 555.996887,108.777832 548.150635,109.195000 
	C548.150635,118.569984 548.150635,127.983398 548.150635,137.719376 
	C546.317261,137.828705 544.884033,137.914169 542.975464,137.999619 
M555.969177,96.537537 
	C556.616699,95.076508 557.508179,93.673363 557.870911,92.144760 
	C559.756897,84.196198 556.061890,79.604897 548.337952,80.324707 
	C548.337952,86.169395 548.337952,92.022659 548.337952,98.434181 
	C550.951538,97.940254 553.145142,97.525688 555.969177,96.537537 
z"/>
<path fill="#FFB319" opacity="1.000000" stroke="none" 
	d="
M319.303711,69.137375 
	C327.193390,72.039474 329.997314,76.141571 329.999207,84.301514 
	C330.002197,97.275345 329.849243,110.251511 330.049225,123.222260 
	C330.200500,133.031891 323.797668,140.170288 311.270782,137.982819 
	C300.434235,136.090515 297.048767,131.583679 297.009338,120.772720 
	C296.968109,109.462341 296.571381,98.130447 297.130890,86.847672 
	C297.610016,77.185715 299.176331,72.247429 307.096954,69.657173 
	C310.708740,68.476036 314.936890,69.179802 319.303711,69.137375 
M319.000397,109.491531 
	C318.999878,101.519768 319.134247,93.544594 318.932770,85.577911 
	C318.851654,82.371605 317.711884,79.071465 313.764008,79.111450 
	C309.813477,79.151474 308.952759,82.137352 308.973145,85.627373 
	C309.043121,97.584602 308.958099,109.542747 309.029938,121.499954 
	C309.047638,124.447845 309.044495,127.776100 313.243835,127.961052 
	C317.679718,128.156403 318.619263,124.764069 318.923584,121.440910 
	C319.255371,117.817528 318.999878,114.140366 319.000397,109.491531 
z"/>
<path fill="#FFB319" opacity="1.000000" stroke="none" 
	d="
M498.778687,72.714630 
	C504.620514,67.281456 511.228516,68.270401 517.531006,69.982025 
	C524.315735,71.824608 526.692322,77.737106 526.881042,83.978966 
	C527.273499,96.954475 527.122620,109.951790 526.947876,122.936813 
	C526.860291,129.442444 524.062927,134.977158 517.898010,137.421753 
	C511.274597,140.048187 504.027466,139.777161 498.721741,134.762558 
	C496.002106,132.192154 494.366180,127.318794 494.206909,123.406197 
	C493.665680,110.107826 493.691284,96.761864 494.206726,83.461449 
	C494.343903,79.921234 497.008118,76.478928 498.778687,72.714630 
M514.999451,114.467377 
	C514.999512,104.312950 514.869019,94.155876 515.073975,84.005592 
	C515.141296,80.669571 513.173035,79.237556 510.753571,79.238594 
	C509.171661,79.239265 506.239990,81.231819 506.214630,82.382881 
	C505.903412,96.513603 505.896667,110.656784 506.255402,124.785439 
	C506.283600,125.896179 509.649109,127.756874 511.416321,127.703552 
	C512.652222,127.666260 514.453003,125.108307 514.847107,123.408546 
	C515.433105,120.880905 514.999207,118.116814 514.999451,114.467377 
z"/>
<path fill="#FFB319" opacity="1.000000" stroke="none" 
	d="
M229.345764,106.744659 
	C223.630875,101.399162 219.092743,95.693321 218.498077,87.891563 
	C217.860245,79.523590 220.675751,68.590027 233.260193,68.946350 
	C242.621857,69.211426 247.854752,71.730118 249.643539,78.344124 
	C250.520096,81.585144 250.238831,85.139290 250.497238,88.771881 
	C247.440643,88.771881 244.145386,88.771881 240.471832,88.771881 
	C240.020416,87.022102 239.853577,84.861122 238.902740,83.131004 
	C238.016479,81.518394 235.834824,79.006378 235.035202,79.278206 
	C233.110092,79.932655 230.758102,81.706947 230.196289,83.528557 
	C228.790833,88.085609 231.646454,91.707199 234.466324,94.914871 
	C238.751495,99.789337 243.956589,103.990616 247.552795,109.302521 
	C252.569458,116.712555 251.713120,126.811134 246.991821,133.525314 
	C243.212112,138.900406 234.070618,139.796112 227.222595,137.597305 
	C220.617310,135.476425 218.865677,129.593079 218.041931,123.460762 
	C217.781921,121.525146 218.001328,119.525139 218.001328,117.278824 
	C221.689026,117.278824 225.090790,117.278824 229.007004,117.278824 
	C229.007004,119.290115 228.868378,121.242432 229.039017,123.167336 
	C229.304718,126.164558 231.041275,128.010269 234.090073,127.936539 
	C237.104691,127.863625 238.841797,126.059319 238.985764,122.986664 
	C239.329910,115.640999 235.386505,110.762177 229.345764,106.744659 
z"/>
<path fill="#FFB319" opacity="1.000000" stroke="none" 
	d="
M590.903931,124.699677 
	C592.895874,125.974030 595.409119,128.025299 596.510559,127.436302 
	C598.187195,126.539719 599.479980,123.922234 599.858765,121.839714 
	C600.408875,118.814713 599.999756,115.615273 599.999756,112.247917 
	C603.769470,112.247917 607.161926,112.247917 610.906982,112.247917 
	C610.747192,119.523781 612.108398,126.617607 607.520630,133.215958 
	C603.972229,138.319458 598.548889,139.301682 593.853821,138.656433 
	C583.623047,137.250427 578.772217,134.275894 578.962830,121.040016 
	C579.137817,108.893616 578.989380,96.742691 579.003784,84.593796 
	C579.013245,76.561752 582.397522,71.074036 588.458618,69.183189 
	C595.368469,67.027550 605.051636,69.059563 607.956177,74.893547 
	C610.513855,80.031036 610.764893,86.316917 612.163330,92.681763 
	C607.382202,92.681763 603.987244,92.681763 599.999939,92.681763 
	C599.999939,90.288033 599.886475,87.849976 600.026794,85.426613 
	C600.232849,81.868347 598.482483,79.437637 595.216553,79.140106 
	C591.413696,78.793648 590.232788,82.209618 590.107178,85.108681 
	C589.790405,92.417625 589.900085,99.751228 590.032227,107.071472 
	C590.135864,112.815094 590.528748,118.553497 590.903931,124.699677 
z"/>
<path fill="#FFB319" opacity="1.000000" stroke="none" 
	d="
M458.000336,116.999863 
	C458.000336,101.216927 458.000336,85.933983 458.000336,70.326035 
	C467.605286,70.326035 476.988281,70.326035 486.686951,70.326035 
	C486.686951,73.306618 486.686951,76.365753 486.686951,79.891891 
	C480.988220,79.891891 475.252380,79.891891 469.265350,79.891891 
	C469.265350,86.069016 469.265350,91.789513 469.265350,97.975441 
	C473.775085,97.975441 478.182190,97.975441 482.782990,97.975441 
	C482.782990,101.372856 482.782990,104.317986 482.782990,107.725502 
	C478.494141,107.725502 474.094116,107.725502 469.239349,107.725502 
	C469.239349,117.887108 469.239349,127.609406 469.239349,137.662994 
	C465.406464,137.662994 462.015533,137.662994 458.000336,137.662994 
	C458.000336,131.009338 458.000336,124.254585 458.000336,116.999863 
z"/>
<path fill="#FFB319" opacity="1.000000" stroke="none" 
	d="
M279.000000,102.000084 
	C279.000000,114.128876 279.000000,125.757713 279.000000,137.692108 
	C275.348053,137.692108 271.955383,137.692108 268.106812,137.692108 
	C268.106812,118.639297 268.106812,99.587326 268.106812,80.074249 
	C264.277802,80.074249 260.868927,80.074249 257.240662,80.074249 
	C257.240662,76.549492 257.240662,73.489731 257.240662,70.214310 
	C268.046295,70.214310 278.648895,70.214310 289.626404,70.214310 
	C289.626404,73.190926 289.626404,76.251175 289.626404,79.780670 
	C286.431763,79.780670 283.028259,79.780670 279.000000,79.780670 
	C279.000000,87.316612 279.000000,94.408371 279.000000,102.000084 
z"/>
<path fill="#FFB319" opacity="1.000000" stroke="none" 
	d="
M84.878845,90.939651 
	C76.767548,86.639870 68.629997,82.388641 60.554646,78.022369 
	C55.601810,75.344421 50.744270,72.490219 45.083698,69.284645 
	C58.589127,60.902443 71.390923,52.956955 84.592957,45.501183 
	C84.955078,60.973820 84.916962,75.956734 84.878845,90.939651 
z"/>
<path fill="#2E0103" opacity="1.000000" stroke="none" 
	d="
M85.216400,90.833130 
	C84.916962,75.956734 84.955078,60.973820 84.951370,45.529610 
	C97.573204,52.876186 110.236877,60.684055 124.302872,69.356537 
	C110.634834,76.894478 98.094398,83.810547 85.216400,90.833130 
z"/>
<path fill="none" opacity="1.000000" stroke="none" 
	d="
M352.003845,95.686890 
	C352.014221,90.592995 352.022156,85.966873 352.055573,81.340942 
	C352.057770,81.038422 352.255005,80.737312 352.367798,80.437759 
	C359.573944,79.497459 360.991913,80.741188 360.998840,88.014748 
	C361.000580,89.832207 361.483154,91.850548 360.849121,93.413216 
	C360.151825,95.131813 358.667938,97.133286 357.064789,97.696373 
	C355.724823,98.167030 353.718567,96.740875 352.003845,95.686890 
z"/>
<path fill="none" opacity="1.000000" stroke="none" 
	d="
M555.653931,96.824326 
	C553.145142,97.525688 550.951538,97.940254 548.337952,98.434181 
	C548.337952,92.022659 548.337952,86.169395 548.337952,80.324707 
	C556.061890,79.604897 559.756897,84.196198 557.870911,92.144760 
	C557.508179,93.673363 556.616699,95.076508 555.653931,96.824326 
z"/>
<path fill="none" opacity="1.000000" stroke="none" 
	d="
M319.000397,109.989090 
	C318.999878,114.140366 319.255371,117.817528 318.923584,121.440910 
	C318.619263,124.764069 317.679718,128.156403 313.243835,127.961052 
	C309.044495,127.776100 309.047638,124.447845 309.029938,121.499954 
	C308.958099,109.542747 309.043121,97.584602 308.973145,85.627373 
	C308.952759,82.137352 309.813477,79.151474 313.764008,79.111450 
	C317.711884,79.071465 318.851654,82.371605 318.932770,85.577911 
	C319.134247,93.544594 318.999878,101.519768 319.000397,109.989090 
z"/>
<path fill="none" opacity="1.000000" stroke="none" 
	d="
M514.999451,114.960373 
	C514.999207,118.116814 515.433105,120.880905 514.847107,123.408546 
	C514.453003,125.108307 512.652222,127.666260 511.416321,127.703552 
	C509.649109,127.756874 506.283600,125.896179 506.255402,124.785439 
	C505.896667,110.656784 505.903412,96.513603 506.214630,82.382881 
	C506.239990,81.231819 509.171661,79.239265 510.753571,79.238594 
	C513.173035,79.237556 515.141296,80.669571 515.073975,84.005592 
	C514.869019,94.155876 514.999512,104.312950 514.999451,114.960373 
z"/>
</svg>